PathFileType	4	(X/Y/Z)	/Users/visionmauri/Downloads/Videos/OAW02-top_Sports2D/OAW02-top_Sports2D_m_person00.trc
DataRate	CameraRate	NumFrames	NumMarkers	Units	OrigDataRate	OrigDataStartFrame	OrigNumFrames
30.0	30.0	9	22	m	30.0	1079	2158
Frame#	Time	Hip			RHip			RKnee			RAnkle			RBigToe			RSmallToe			RHeel			LHip			LKnee			LAnkle			LBigToe			LSmallToe			LHeel			Neck			Head			Nose			RShoulder			RElbow			RWrist			LShoulder			LElbow			LWrist			
		X1	Y1	Z1	X2	Y2	Z2	X3	Y3	Z3	X4	Y4	Z4	X5	Y5	Z5	X6	Y6	Z6	X7	Y7	Z7	X8	Y8	Z8	X9	Y9	Z9	X10	Y10	Z10	X11	Y11	Z11	X12	Y12	Z12	X13	Y13	Z13	X14	Y14	Z14	X15	Y15	Z15	X16	Y16	Z16	X17	Y17	Z17	X18	Y18	Z18	X19	Y19	Z19	X20	Y20	Z20	X21	Y21	Z21	X22	Y22	Z22
1079	35.983341060114356	6.00909175950779	0.13879770063570768	0.0301	5.9892896020537085	0.05833788931032924	0.0301	6.2402351558698355	-0.005398256849307875	0.129	6.452018556519533	-0.036608750768985704	0.023	6.539139864450352	-0.07853293632091017	0.2179	6.510052049567339	-0.10447672447173731	0.1804	6.480048135110804	-0.027182440371948703	-0.0119	6.037046690644726	0.20777977206283582	0.0301	6.300464939488991	0.10030831108957458	0.129	6.597939871984876	-0.0014403335639938083	0.023	6.6584770314471085	-0.03339632472878097	0.2179	6.672409966326642	0.014860855421114426	0.1804	6.63842166856664	-0.028863217308092694	-0.0119	5.611694890709066	0.28858651483147824	0.0008	5.458896217229603	0.3571402634197377	0.0655	5.635006361843152	0.2994011173667396	0.1076	5.5839577525667	0.1436987880683006	-0.01275	5.759828520695109	0.0008480363142163137	0.0702	5.938770774020441	-0.09249604847639277	0.1076	5.682065507883463	0.4310887692463814	-0.01275	5.876189513176762	0.39723553372948206	0.0702	6.040446175311771	0.35987723609847766	0.1076
1080	36.01668984700974	6.023237021994003	0.13804803341986036	0.0301	6.005072838753472	0.05610455906987974	0.0301	6.253175841556577	-0.006254348008402396	0.129	6.455376020088465	-0.03806960428535308	0.023	6.536790670049572	-0.07779586651227952	0.2179	6.5084461919919185	-0.10305106335187407	0.1804	6.480041387639346	-0.029732706184816993	-0.0119	6.052317709543084	0.2056818456757606	0.0301	6.314303017573375	0.09279482028056099	0.129	6.615276711872681	-0.013764981187888955	0.023	6.669573935468913	-0.041541743762453155	0.2179	6.685200592377613	0.0026029402047550673	0.1804	6.660649814030769	-0.044421049098534	-0.0119	5.6211881693436405	0.2866570491042645	0.0008	5.462380449969822	0.3605364529309072	0.0655	5.638809184346978	0.2988426854628985	0.1076	5.598423018270772	0.13906303810097143	-0.01275	5.7759863499602115	-0.0019575182296398207	0.0702	5.955233743006073	-0.09137741636376513	0.1076	5.697325322272116	0.431571292307053	-0.01275	5.890492814462129	0.39596191847394036	0.0702	6.053932347499499	0.3601193863015007	0.1076
1081	36.05003863390512	6.037388806301081	0.13713002248025696	0.0301	6.019043382514099	0.053274848297044486	0.0301	6.264802112389957	-0.009702112862463119	0.129	6.455404149411389	-0.03814475427902924	0.023	6.535157223487824	-0.07527610334349262	0.2179	6.506490106629581	-0.10222411509566472	0.1804	6.476945363417216	-0.03204372510962443	-0.0119	6.068561051498852	0.202972854457323	0.0301	6.326114823721175	0.08607287982944149	0.129	6.628881008401268	-0.02634538842900463	0.023	6.682782460213619	-0.05254620404015327	0.2179	6.696480028464086	-0.011306474224268464	0.1804	6.677579294808643	-0.05727016338603524	-0.0119	5.6305395702852055	0.28736711890097516	0.0008	5.464406097072501	0.3633097933492445	0.0655	5.64310220183386	0.3006719681459197	0.1076	5.611739110479305	0.1351832337292183	-0.01275	5.789262530088143	-0.0038653867110840256	0.0702	5.967563874458659	-0.0901918264782287	0.1076	5.711185089961069	0.43213049379332635	-0.01275	5.904117459308133	0.3962306331153481	0.0702	6.065451556084823	0.3625215121574758	0.1076
1082	36.0833874208005	6.050631237931819	0.13579064660380233	0.0301	6.0301609066941815	0.051000222685142815	0.0301	6.275399332974292	-0.015201134527903688	0.129	6.452889153022034	-0.03769249511078069	0.023	6.535130331527974	-0.07306122729106405	0.2179	6.505309204119571	-0.1018595842873958	0.1804	6.472410814220175	-0.035076145433661596	-0.0119	6.082216611961081	0.2005778641259443	0.0301	6.335552901348123	0.08084699954068036	0.129	6.639095673729714	-0.03784689479019627	0.023	6.70444090341283	-0.06652562086660647	0.2179	6.713761413663002	-0.024672771030804425	0.1804	6.688559300676986	-0.06775645094807778	-0.0119	5.640818590543381	0.28927007518316183	0.0008	5.46819378114722	0.367931706908875	0.0655	5.6514315927923375	0.3046636636688084	0.1076	5.622851974809004	0.1332069491384352	-0.01275	5.8000731245270085	-0.0043655235736481165	0.0702	5.978212119603546	-0.08903050621636598	0.1076	5.722643641137313	0.4329159820015305	-0.01275	5.916252073478886	0.39784522505860487	0.0702	6.076569105699688	0.3654944648505226	0.1076
1083	36.11673620769588	6.0625814334119354	0.13386902621008642	0.0301	6.039665862497568	0.04956927107156482	0.0301	6.285823758159214	-0.021054055118139948	0.129	6.450206433863404	-0.039419233935720784	0.023	6.536305071463525	-0.07210807670131214	0.2179	6.506054422300958	-0.10164053516035834	0.1804	6.469836766924828	-0.04032140426092239	-0.0119	6.092673239219864	0.19954358591933125	0.0301	6.345270646548731	0.07781813974672883	0.129	6.649073321403519	-0.0458493991305935	0.023	6.734197219309955	-0.08148283614901511	0.2179	6.74023308461401	-0.035540127911698235	0.1804	6.693984521446677	-0.07429463235399839	-0.0119	5.652106073937316	0.290463689162027	0.0008	5.474974848033057	0.3729426907359238	0.0655	5.661592870263896	0.3062655772544759	0.1076	5.632088609737967	0.13335668012137075	-0.01275	5.80983171618	-0.002964691551008335	0.0702	5.989937689470056	-0.08742974500484745	0.1076	5.733310894465209	0.43466697000495913	-0.01275	5.927216409293383	0.40015828296638856	0.0702	6.090091066594067	0.3679179258753536	0.1076
1084	36.15008499459125	6.073702465750118	0.1317503393722773	0.0301	6.048672144842601	0.0478095848555231	0.0301	6.296527340395139	-0.027360069399983106	0.129	6.447322270964455	-0.04576525620778487	0.023	6.537676051148321	-0.0720341671099197	0.2179	6.507980262569942	-0.1028058876397882	0.1804	6.468014664735075	-0.04748059430946595	-0.0119	6.103055787192055	0.20017597313942603	0.0301	6.359653326348933	0.07711741248537583	0.129	6.660805265722057	-0.050485790351713765	0.023	6.757972134914161	-0.092849978258715	0.2179	6.764628601709988	-0.04198379926049464	0.1804	6.696576558075839	-0.07664141405920966	-0.0119	5.662810571218708	0.2910744411791273	0.0008	5.4878301266606275	0.3744051184949656	0.0655	5.672455490987785	0.3043609933045495	0.1076	5.639208817868819	0.13487561697341535	-0.01275	5.819054049518511	-0.0004773595765040945	0.0702	6.00151025676609	-0.08597071622152556	0.1076	5.742237236099765	0.43770066127816465	-0.01275	5.935747842411698	0.4035800808007719	0.0702	6.103678240160728	0.370345674369279	0.1076
1085	36.183433781486634	6.084608013326265	0.13015377510437934	0.0301	6.057419749541912	0.04565100172671421	0.0301	6.306881436262059	-0.03426010746760983	0.129	6.443618973672147	-0.056392330208435065	0.023	6.5391211781979655	-0.07522471332314526	0.2179	6.50976246364572	-0.10874878974796467	0.1804	6.463474466939124	-0.05545412983909031	-0.0119	6.115004899265173	0.2014640080575234	0.0301	6.378179070380829	0.07807613784493769	0.129	6.670982955222447	-0.05309854820572366	0.023	6.766725274810019	-0.09843583148232773	0.2179	6.7768210290176185	-0.04405114740638761	0.1804	6.698435300845684	-0.07703981018145763	-0.0119	5.671310661942702	0.29182118164666293	0.0008	5.503274676631302	0.37471319274994747	0.0655	5.68417891591493	0.30373044757606715	0.1076	5.644418751950207	0.13620785955883388	-0.01275	5.827601459728752	0.0008655339401647437	0.0702	6.010989714606488	-0.08546901395290199	0.1076	5.748061054655992	0.44134835120373467	-0.01275	5.941729605214645	0.4081491419186065	0.0702	6.114015799453392	0.3732982799796033	0.1076
1086	36.216782568382015	6.0944238505789095	0.1297082025315724	0.0301	6.065898487617724	0.04475555861692075	0.0301	6.31553463821429	-0.04063739045713049	0.129	6.44253851605868	-0.06832268483818825	0.023	6.5440262552112065	-0.08535303281392878	0.2179	6.513909698863658	-0.12085156593967422	0.1804	6.458894437184916	-0.06414756759483663	-0.0119	6.125793954536591	0.20234559080130765	0.0301	6.393593283493418	0.0790307310812722	0.129	6.676387453272568	-0.0540202847658743	0.023	6.767471731168078	-0.09986379276184255	0.2179	6.780092611304286	-0.04462422113572394	0.1804	6.699761520461068	-0.07725233570188185	-0.0119	5.677665248796219	0.29258733224750644	0.0008	5.511370251079665	0.3779664138600396	0.0655	5.692368142597956	0.3066551859248189	0.1076	5.649189271268821	0.13635763458307382	-0.01275	5.835320944698079	-4.018633736021788e-05	0.0702	6.0183271998217815	-0.08616223653913843	0.1076	5.752804488365134	0.44469118380773004	-0.01275	5.948141378107029	0.41298341856161275	0.0702	6.123124558574456	0.376832695616564	0.1076
1087	36.2501313552774	6.101793485634417	0.13048794425297497	0.0301	6.073373483388996	0.04596919252943435	0.0301	6.322618509311668	-0.045853221010757735	0.129	6.450121784209874	-0.07987086559652785	0.023	6.558618191614443	-0.10219637489448447	0.2179	6.526564025832237	-0.13706520424661656	0.1804	6.463015340751316	-0.07493870992514352	-0.0119	6.132947108193507	0.20337361231047418	0.0301	6.401805148022705	0.07892898444201422	0.129	6.6787818143114155	-0.053570886195855184	0.023	6.768429096923062	-0.09903591674812505	0.2179	6.780967407147238	-0.04585657031452802	0.1804	6.700696117014123	-0.0772669930955356	-0.0119	5.682867000793891	0.2932706664669792	0.0008	5.510040704799449	0.3818096252678449	0.0655	5.694006484559115	0.3103321285709541	0.1076	5.65426702842225	0.13601056511372026	-0.01275	5.841714333578568	-0.0017442388087012205	0.0702	6.023964443684613	-0.08830067884101997	0.1076	5.758020340202424	0.4475803105418882	-0.01275	5.956293946806267	0.4179683630196824	0.0702	6.1334921150799575	0.38139295319197075	0.1076
